<?xml version="1.0" standalone="no"?>
<!DOCTYPE svg PUBLIC "-//W3C//DTD SVG 20010904//EN"
 "http://www.w3.org/TR/2001/REC-SVG-20010904/DTD/svg10.dtd">
<svg version="1.0" xmlns="http://www.w3.org/2000/svg"
 width="446.000000pt" height="235.000000pt" viewBox="0 0 446.000000 235.000000"
 preserveAspectRatio="xMidYMid meet">

<g transform="translate(0.000000,235.000000) scale(0.100000,-0.100000)"
fill="#000000" stroke="none">
<path d="M1755 2313 c-294 -18 -564 -58 -750 -112 -102 -29 -292 -97 -310
-111 -5 -4 -21 -11 -35 -15 -77 -23 -283 -166 -372 -258 -124 -128 -195 -252
-235 -415 -23 -92 -27 -128 -27 -257 -1 -285 61 -505 249 -887 51 -104 96
-178 80 -133 -19 55 -64 250 -75 320 -6 44 -18 118 -25 165 -44 271 -43 444 2
540 27 57 41 72 55 64 5 -3 7 -2 6 3 -4 16 100 221 157 307 71 108 232 270
352 354 195 136 441 251 702 326 188 55 292 74 576 109 36 5 -278 5 -350 0z"/>
<path d="M4079 2292 c17 -32 88 -305 107 -412 23 -130 26 -417 5 -530 -45
-250 -167 -490 -348 -683 -84 -90 -262 -224 -392 -296 -179 -99 -274 -141
-451 -199 -239 -77 -283 -88 -600 -146 -50 -9 219 5 365 20 631 61 1112 234
1399 503 68 64 155 183 198 271 36 74 55 136 38 125 -22 -13 -29 73 -28 315 1
237 -1 266 -26 410 -34 188 -50 240 -126 392 -56 111 -137 248 -146 248 -3 0
0 -8 5 -18z"/>
<path d="M2585 1674 c-85 -20 -151 -73 -192 -153 -31 -59 -33 -69 -33 -163 0
-91 3 -106 30 -163 60 -125 149 -170 320 -163 87 3 103 7 146 34 120 73 156
232 51 222 -26 -2 -36 -13 -64 -60 -43 -74 -87 -101 -162 -101 -33 0 -69 7
-89 17 -98 51 -128 241 -56 363 33 58 94 87 165 81 60 -6 90 -26 135 -87 39
-56 74 -70 110 -46 31 20 31 56 0 110 -32 53 -90 91 -168 110 -76 18 -114 18
-193 -1z"/>
<path d="M3129 1671 l-24 -19 0 -297 c0 -282 1 -297 19 -311 11 -8 34 -14 52
-14 54 0 64 25 64 167 l0 123 155 0 155 0 0 -128 c0 -144 8 -162 68 -162 62 0
62 0 62 330 l0 300 -25 16 c-28 18 -64 13 -89 -12 -13 -12 -16 -39 -16 -125
l0 -109 -155 0 -155 0 0 109 c0 106 -1 110 -26 130 -33 26 -55 26 -85 2z"/>
<path d="M923 1673 c-14 -3 -25 -14 -29 -29 -14 -56 19 -74 137 -74 l79 0 0
-248 c0 -284 2 -292 70 -292 68 0 70 8 70 292 l0 248 79 0 c43 0 92 5 109 11
57 20 51 81 -9 93 -34 7 -470 6 -506 -1z"/>
<path d="M2230 887 c-51 -26 -33 -59 39 -70 40 -7 54 -19 49 -43 -5 -29 -61
-31 -88 -4 -12 12 -24 19 -27 17 -2 -3 5 -15 16 -26 27 -27 91 -29 114 -3 35
39 19 56 -74 76 -30 7 -46 41 -20 45 43 5 66 1 77 -13 14 -20 24 -20 24 -2 0
19 -7 23 -50 30 -21 4 -45 1 -60 -7z"/>
<path d="M2406 893 c-3 -3 -6 -39 -6 -78 0 -57 3 -72 15 -72 12 0 15 15 15 73
0 67 -8 93 -24 77z"/>
<path d="M2517 885 c-8 -8 -17 -11 -21 -8 -3 4 -5 -5 -4 -20 1 -14 5 -25 8
-25 3 1 12 -1 20 -5 31 -11 60 -15 54 -6 -3 5 -13 9 -22 9 -9 0 -25 7 -35 14
-15 12 -16 15 -2 26 8 7 26 13 40 13 13 0 22 3 19 8 -8 14 -41 11 -57 -6z"/>
<path d="M3355 891 c-3 -6 -3 -11 2 -11 4 0 3 -4 -4 -8 -20 -13 -75 -126 -63
-130 15 -5 21 1 22 24 2 17 9 19 56 16 36 -3 52 0 48 6 -3 6 -2 13 3 17 12 7
-28 87 -46 92 -6 2 -14 -1 -18 -6z m48 -88 c-3 -7 -18 -13 -35 -13 -26 0 -29
3 -26 28 2 15 10 35 18 45 13 16 16 15 31 -15 9 -18 15 -38 12 -45z"/>
<path d="M3538 888 c-20 -7 -27 -16 -25 -31 1 -17 14 -26 52 -37 38 -12 51
-21 53 -38 3 -16 -3 -23 -23 -28 -26 -7 -78 13 -70 26 2 4 -2 7 -10 7 -18 0
-2 -32 21 -41 27 -10 79 -7 98 7 22 16 18 59 -6 64 -10 2 -31 6 -48 10 -16 3
-35 12 -42 20 -10 12 -9 18 7 30 11 8 29 11 40 8 11 -4 25 -7 32 -7 6 -1 9 -7
6 -15 -3 -7 0 -13 6 -13 22 0 11 31 -15 40 -30 12 -40 12 -76 -2z"/>
<path d="M2597 871 c3 -12 9 -21 13 -21 12 0 5 33 -8 38 -6 2 -8 -5 -5 -17z"/>
<path d="M2693 883 l37 -4 0 -70 c0 -55 3 -69 15 -69 12 0 15 14 15 69 l0 70
33 3 c17 2 -6 4 -53 4 -47 0 -68 -1 -47 -3z"/>
<path d="M2870 815 l0 -75 71 0 c38 0 68 4 65 8 -3 5 -28 8 -56 8 -47 -1 -50
1 -51 24 -1 14 -1 29 0 34 1 4 -4 15 -11 24 -10 12 -10 14 0 8 8 -5 12 -1 12
13 0 17 8 20 58 24 55 3 54 3 -15 5 l-73 2 0 -75z"/>
<path d="M3060 816 c0 -44 4 -76 10 -76 6 0 10 29 10 67 l0 66 21 -19 c21 -19
21 -19 18 6 -3 19 -11 26 -31 28 l-28 3 0 -75z"/>
<path d="M3180 848 c-8 -24 -14 -47 -15 -53 0 -5 -8 -13 -18 -17 -22 -9 -17
-32 8 -36 10 -3 15 0 11 7 -4 6 -2 11 5 11 6 0 9 8 7 18 -3 11 2 35 12 54 10
20 14 41 10 47 -4 7 -13 -7 -20 -31z"/>
<path d="M3218 876 c4 -6 7 -37 6 -69 -1 -31 3 -60 8 -63 5 -3 8 25 7 68 -1
55 -5 75 -15 75 -8 0 -10 -5 -6 -11z"/>
<path d="M2968 823 c7 -3 16 -2 19 1 4 3 -2 6 -13 5 -11 0 -14 -3 -6 -6z"/>
<path d="M3110 821 c0 -6 5 -13 10 -16 6 -4 7 -12 4 -18 -5 -9 -4 -9 6 0 7 6
10 19 7 27 -7 17 -27 22 -27 7z"/>
<path d="M2595 811 c3 -6 11 -9 16 -5 13 8 -12 -38 -26 -48 -19 -14 -55 -8
-67 12 -13 20 -38 28 -38 11 0 -13 26 -32 33 -24 4 3 7 1 7 -5 0 -15 64 -16
90 -2 25 13 22 63 -4 68 -11 3 -16 0 -11 -7z"/>
<path d="M3425 778 c4 -37 4 -38 20 -38 8 0 15 5 15 11 0 5 -5 7 -11 4 -6 -4
-10 -1 -8 6 3 24 -1 39 -10 39 -4 0 -7 -10 -6 -22z"/>
</g>
</svg>
